<svg width="373" height="100" viewBox="0 0 373 100" fill="none" xmlns="http://www.w3.org/2000/svg">
<g clip-path="url(#clip0_29_1224)">
<path d="M80.4688 0H19.5312C8.74444 0 0 8.74444 0 19.5312V80.4688C0 91.2556 8.74444 100 19.5312 100H80.4688C91.2556 100 100 91.2556 100 80.4688V19.5312C100 8.74444 91.2556 0 80.4688 0Z" fill="url(#paint0_linear_29_1224)"/>
<path fill-rule="evenodd" clip-rule="evenodd" d="M64.0172 52.6154C66.1043 51.4133 66.1043 48.4012 64.0168 47.1992L64.0158 47.1988L56.9389 43.127L64.7264 39.4957L67.5223 41.1041L67.5266 41.1066L75.4672 45.6752C78.7309 47.5529 78.7309 52.2621 75.4672 54.1398L67.5279 58.7074L67.5223 58.7107L64.2145 60.6139L56.4268 56.9824L64.0158 52.6162L64.0172 52.6154ZM40.2344 56.7588V60.8951V60.8965C40.2354 63.2992 42.8348 64.8023 44.9178 63.6039L49.3926 61.0295L57.1803 64.6607L48.4242 69.6984L48.4186 69.7018L40.5209 74.2455C37.2658 76.1182 33.2031 73.7686 33.2031 70.0131V60.8951V53.4801L40.2344 56.7588ZM57.6922 35.4486L49.9047 39.0801L44.9178 36.2109L44.9148 36.2094C42.832 35.0137 40.2344 36.5172 40.2344 38.9197V43.5893L33.2031 46.8682V38.9197V29.8018C33.2031 26.0463 37.2658 23.6967 40.5209 25.5693L48.4213 30.1146L48.4242 30.1164L57.6922 35.4486Z" fill="url(#paint1_linear_29_1224)"/>
</g>
<path d="M147.131 82H133.396L120.283 41.3887H133.452L139.654 66.3955C140.145 68.4157 140.419 69.9261 140.476 70.9268H140.759C140.872 69.6618 141.165 68.0947 141.637 66.2256L147.669 41.3887H160.413L147.131 82ZM182.078 82V77.5254H181.965C180.964 78.9036 180.058 79.9137 179.246 80.5557C178.453 81.1976 177.547 81.7168 176.527 82.1133C175.527 82.5098 174.356 82.708 173.016 82.708C169.844 82.708 167.427 81.679 165.766 79.6211C164.104 77.5632 163.273 74.5234 163.273 70.502V53H175.338V69.5957C175.338 72.4466 176.405 73.8721 178.538 73.8721C179.709 73.8721 180.587 73.485 181.172 72.7109C181.776 71.9368 182.078 70.8418 182.078 69.4258V53H194.143V82H182.078ZM210.313 70.9268C210.521 72.1729 211.239 73.1546 212.466 73.8721C213.693 74.5706 215.317 74.9199 217.337 74.9199C220.15 74.9199 222.812 74.3818 225.323 73.3057V80.9521C222.397 82.1227 218.847 82.708 214.675 82.708C209.615 82.708 205.678 81.4147 202.865 78.8281C200.052 76.2415 198.646 72.6826 198.646 68.1514C198.646 65.0361 199.259 62.2891 200.486 59.9102C201.732 57.5312 203.564 55.6715 205.98 54.3311C208.416 52.9717 211.097 52.292 214.023 52.292C217.025 52.292 219.593 52.8773 221.727 54.0479C223.86 55.2184 225.474 56.861 226.569 58.9756C227.683 61.0902 228.24 63.5635 228.24 66.3955V70.9268H210.313ZM217.563 64.6113C217.563 61.2695 216.365 59.5986 213.967 59.5986C212.966 59.5986 212.126 60.0612 211.446 60.9863C210.767 61.8926 210.37 63.1009 210.257 64.6113H217.563ZM254.068 50.9609V82H241.777V50.9609H230.421V41.3887H265.566V50.9609H254.068ZM287.826 82V77.5254H287.713C286.712 78.9036 285.806 79.9137 284.994 80.5557C284.201 81.1976 283.295 81.7168 282.275 82.1133C281.275 82.5098 280.104 82.708 278.764 82.708C275.592 82.708 273.175 81.679 271.514 79.6211C269.852 77.5632 269.021 74.5234 269.021 70.502V53H281.086V69.5957C281.086 72.4466 282.153 73.8721 284.286 73.8721C285.457 73.8721 286.335 73.485 286.92 72.7109C287.524 71.9368 287.826 70.8418 287.826 69.4258V53H299.891V82H287.826ZM338.378 66.6221C338.378 69.7939 337.849 72.6071 336.792 75.0615C335.754 77.4971 334.271 79.3851 332.346 80.7256C330.42 82.0472 328.239 82.708 325.804 82.708C323.935 82.708 322.33 82.3682 320.989 81.6885C319.668 80.9899 318.62 80.0931 317.846 78.998H317.732V82H305.668V39.0664H317.732V56.9365H317.846C318.79 55.5016 320.064 54.3688 321.669 53.5381C323.293 52.7074 325.077 52.292 327.021 52.292C330.684 52.292 333.488 53.5098 335.433 55.9453C337.396 58.3809 338.378 61.9398 338.378 66.6221ZM326.144 66.9902C326.144 65.0456 325.766 63.5824 325.011 62.6006C324.274 61.6188 323.208 61.1279 321.811 61.1279C320.583 61.1279 319.554 61.6471 318.724 62.6855C317.912 63.7051 317.506 65.0361 317.506 66.6787V68.4346C317.506 70.096 317.874 71.4176 318.61 72.3994C319.347 73.3812 320.338 73.8721 321.584 73.8721C323.038 73.8721 324.161 73.2773 324.954 72.0879C325.747 70.8796 326.144 69.1803 326.144 66.9902ZM353.331 70.9268C353.539 72.1729 354.256 73.1546 355.483 73.8721C356.711 74.5706 358.334 74.9199 360.354 74.9199C363.168 74.9199 365.83 74.3818 368.341 73.3057V80.9521C365.414 82.1227 361.865 82.708 357.692 82.708C352.632 82.708 348.696 81.4147 345.883 78.8281C343.07 76.2415 341.663 72.6826 341.663 68.1514C341.663 65.0361 342.277 62.2891 343.504 59.9102C344.75 57.5312 346.581 55.6715 348.998 54.3311C351.434 52.9717 354.115 52.292 357.041 52.292C360.043 52.292 362.611 52.8773 364.744 54.0479C366.878 55.2184 368.492 56.861 369.587 58.9756C370.701 61.0902 371.258 63.5635 371.258 66.3955V70.9268H353.331ZM360.581 64.6113C360.581 61.2695 359.382 59.5986 356.984 59.5986C355.984 59.5986 355.144 60.0612 354.464 60.9863C353.784 61.8926 353.388 63.1009 353.274 64.6113H360.581Z" fill="#213547"/>
<path d="M132.822 20.6152C132.822 21.5723 132.578 22.4219 132.09 23.1641C131.608 23.9062 130.918 24.4824 130.02 24.8926C129.121 25.2962 128.076 25.498 126.885 25.498H125.596V30H121.377V15.9961H127.119C129.092 15.9961 130.534 16.3704 131.445 17.1191C132.363 17.8678 132.822 19.0332 132.822 20.6152ZM128.359 20.7617C128.359 20.1888 128.193 19.7559 127.861 19.4629C127.529 19.1699 127.041 19.0234 126.396 19.0234H125.596V22.4805H126.543C127.754 22.4805 128.359 21.9076 128.359 20.7617ZM139.668 30V28.4766H139.629C138.965 29.6549 137.949 30.2441 136.582 30.2441C135.638 30.2441 134.899 29.9642 134.365 29.4043C133.831 28.8444 133.564 28.0957 133.564 27.1582C133.564 25.1921 134.772 24.0527 137.188 23.7402L139.668 23.418C139.668 23.0924 139.521 22.8255 139.229 22.6172C138.936 22.4089 138.542 22.3047 138.047 22.3047C136.927 22.3047 135.745 22.6237 134.502 23.2617V20.5566C135.042 20.3223 135.719 20.1302 136.533 19.9805C137.347 19.8307 138.044 19.7559 138.623 19.7559C140.322 19.7559 141.553 20.1204 142.314 20.8496C143.083 21.5723 143.467 22.7832 143.467 24.4824V30H139.668ZM137.207 26.6016C137.207 26.875 137.292 27.0996 137.461 27.2754C137.637 27.4512 137.884 27.5391 138.203 27.5391C138.639 27.5391 138.991 27.3763 139.258 27.0508C139.531 26.7253 139.668 26.3086 139.668 25.8008V25.4199L138.262 25.6152C137.559 25.7324 137.207 26.0612 137.207 26.6016ZM152.871 23.5645C152.715 23.4928 152.503 23.4277 152.236 23.3691C151.969 23.3105 151.748 23.2812 151.572 23.2812C150.199 23.2812 149.512 24.0755 149.512 25.6641V30H145.352V20H149.512V21.7578H149.551C149.805 21.1263 150.166 20.6478 150.635 20.3223C151.104 19.9902 151.65 19.8242 152.275 19.8242C152.503 19.8242 152.702 19.8633 152.871 19.9414V23.5645ZM161.123 29.8633C160.934 29.9544 160.625 30.0391 160.195 30.1172C159.766 30.2018 159.248 30.2441 158.643 30.2441C157.484 30.2441 156.576 29.9251 155.918 29.2871C155.267 28.6491 154.941 27.7409 154.941 26.5625V22.8809H153.369V20H154.941V18.0371L159.043 16.9043V20H161.123V22.8809H159.043V25.8789C159.043 26.7578 159.391 27.1973 160.088 27.1973C160.413 27.1973 160.758 27.1257 161.123 26.9824V29.8633ZM179.111 24.8242C179.111 26.5104 178.6 27.8353 177.578 28.7988C176.562 29.7624 175.14 30.2441 173.311 30.2441C171.494 30.2441 170.078 29.7754 169.062 28.8379C168.053 27.8939 167.549 26.5951 167.549 24.9414C167.549 23.8802 167.786 22.959 168.262 22.1777C168.737 21.3965 169.414 20.7975 170.293 20.3809C171.172 19.9642 172.184 19.7559 173.33 19.7559C174.515 19.7559 175.54 19.974 176.406 20.4102C177.279 20.8464 177.946 21.4518 178.408 22.2266C178.877 23.0013 179.111 23.8672 179.111 24.8242ZM174.893 24.8438C174.893 23.4831 174.372 22.8027 173.33 22.8027C172.288 22.8027 171.768 23.5156 171.768 24.9414C171.768 26.4453 172.295 27.1973 173.35 27.1973C174.378 27.1973 174.893 26.4128 174.893 24.8438ZM188.369 18.2227C187.939 18.0729 187.539 17.998 187.168 17.998C186.706 17.998 186.364 18.1185 186.143 18.3594C185.921 18.5938 185.811 18.9128 185.811 19.3164V20H188.125V22.8809H185.811V30H181.65V22.8809H179.971V20H181.65V19.082C181.65 18.2682 181.839 17.5521 182.217 16.9336C182.594 16.3086 183.141 15.8236 183.857 15.4785C184.58 15.1335 185.456 14.9609 186.484 14.9609C187.227 14.9609 187.855 15.0326 188.369 15.1758V18.2227Z" fill="#213547"/>
<defs>
<linearGradient id="paint0_linear_29_1224" x1="0" y1="0" x2="100" y2="100" gradientUnits="userSpaceOnUse">
<stop stop-color="#1B3245"/>
<stop offset="1" stop-color="#0C2028"/>
</linearGradient>
<linearGradient id="paint1_linear_29_1224" x1="33.2031" y1="25" x2="84.1797" y2="75.9766" gradientUnits="userSpaceOnUse">
<stop stop-color="#00E1C3"/>
<stop offset="1" stop-color="#00D1D5"/>
</linearGradient>
<clipPath id="clip0_29_1224">
<rect width="100" height="100" fill="white"/>
</clipPath>
</defs>
</svg>
