<svg width="386" height="100" viewBox="0 0 386 100" fill="none" xmlns="http://www.w3.org/2000/svg">
<g clip-path="url(#clip0_29_1296)">
<path d="M80.4688 0H19.5312C8.74444 0 0 8.74444 0 19.5312V80.4688C0 91.2556 8.74444 100 19.5312 100H80.4688C91.2556 100 100 91.2556 100 80.4688V19.5312C100 8.74444 91.2556 0 80.4688 0Z" fill="url(#paint0_linear_29_1296)"/>
<path fill-rule="evenodd" clip-rule="evenodd" d="M64.0172 52.6154C66.1043 51.4133 66.1043 48.4012 64.0168 47.1992L64.0158 47.1988L56.9389 43.127L64.7264 39.4957L67.5223 41.1041L67.5266 41.1066L75.4672 45.6752C78.7309 47.5529 78.7309 52.2621 75.4672 54.1398L67.5279 58.7074L67.5223 58.7107L64.2145 60.6139L56.4268 56.9824L64.0158 52.6162L64.0172 52.6154ZM40.2344 56.7588V60.8951V60.8965C40.2354 63.2992 42.8348 64.8023 44.9178 63.6039L49.3926 61.0295L57.1803 64.6607L48.4242 69.6984L48.4186 69.7018L40.5209 74.2455C37.2658 76.1182 33.2031 73.7686 33.2031 70.0131V60.8951V53.4801L40.2344 56.7588ZM57.6922 35.4486L49.9047 39.0801L44.9178 36.2109L44.9148 36.2094C42.832 35.0137 40.2344 36.5172 40.2344 38.9197V43.5893L33.2031 46.8682V38.9197V29.8018C33.2031 26.0463 37.2658 23.6967 40.5209 25.5693L48.4213 30.1146L48.4242 30.1164L57.6922 35.4486Z" fill="url(#paint1_linear_29_1296)"/>
</g>
<path d="M123.993 82V41.3887H149.283V50.9609H136.228V56.8799H148.49V66.4521H136.228V72.4277H150.218V82H123.993ZM178.736 66.5654L188.082 82H174.205L171.09 75.4014C170.731 74.665 170.325 73.6549 169.872 72.3711H169.759C169.362 73.6549 169.107 74.4479 168.994 74.75C168.881 75.0332 167.776 77.4499 165.681 82H151.889L161.518 67.3867L152.455 53H166.389L169.504 59.7402C169.919 60.5143 170.335 61.5716 170.75 62.9121H170.863C171.411 61.2695 171.798 60.1934 172.024 59.6836L174.97 53H188.139L178.736 66.5654ZM211.333 81.6035C210.785 81.8678 209.889 82.1133 208.643 82.3398C207.396 82.5853 205.896 82.708 204.14 82.708C200.779 82.708 198.145 81.7829 196.238 79.9326C194.35 78.0824 193.406 75.4486 193.406 72.0312V61.3545H188.847V53H193.406V47.3076L205.301 44.0225V53H211.333V61.3545H205.301V70.0488C205.301 72.5977 206.311 73.8721 208.331 73.8721C209.275 73.8721 210.276 73.6644 211.333 73.249V81.6035ZM236.906 63.3369C236.453 63.1292 235.84 62.9404 235.065 62.7705C234.291 62.6006 233.649 62.5156 233.14 62.5156C229.156 62.5156 227.164 64.819 227.164 69.4258V82H215.1V53H227.164V58.0977H227.277C228.014 56.2663 229.062 54.8786 230.421 53.9346C231.78 52.9717 233.366 52.4902 235.179 52.4902C235.84 52.4902 236.415 52.6035 236.906 52.8301V63.3369ZM256.504 82V77.582H256.391C254.465 80.9993 251.52 82.708 247.555 82.708C244.817 82.708 242.674 81.8962 241.126 80.2725C239.578 78.6488 238.804 76.4775 238.804 73.7588C238.804 68.057 242.306 64.7529 249.311 63.8467L256.504 62.9121C256.504 61.9681 256.079 61.194 255.229 60.5898C254.38 59.9857 253.238 59.6836 251.803 59.6836C248.555 59.6836 245.129 60.6087 241.522 62.459V54.6143C243.09 53.9346 245.053 53.3776 247.413 52.9434C249.773 52.5091 251.793 52.292 253.474 52.292C258.401 52.292 261.97 53.3493 264.179 55.4639C266.407 57.5596 267.521 61.0713 267.521 65.999V82H256.504ZM249.367 72.1445C249.367 72.9375 249.613 73.5889 250.104 74.0986C250.613 74.6084 251.331 74.8633 252.256 74.8633C253.521 74.8633 254.54 74.3913 255.314 73.4473C256.107 72.5033 256.504 71.2949 256.504 69.8223V68.7178L252.426 69.2842C250.387 69.624 249.367 70.5775 249.367 72.1445ZM296.889 81.1787C296.115 81.6318 294.897 82 293.235 82.2832C291.574 82.5664 289.658 82.708 287.486 82.708C284.428 82.708 281.69 82.0944 279.273 80.8672C276.876 79.6211 275.016 77.8841 273.694 75.6562C272.373 73.4284 271.712 70.9268 271.712 68.1514C271.712 64.8285 272.41 61.987 273.808 59.627C275.224 57.248 277.234 55.4355 279.84 54.1895C282.445 52.9245 285.466 52.292 288.902 52.292C290.79 52.292 292.48 52.4147 293.972 52.6602C295.482 52.9056 296.454 53.1888 296.889 53.5098V62.9121C296.285 62.4401 295.416 62.0247 294.283 61.666C293.15 61.3073 292.103 61.1279 291.14 61.1279C288.78 61.1279 286.986 61.6943 285.759 62.8271C284.55 63.9411 283.946 65.5176 283.946 67.5566C283.946 69.5579 284.541 71.1156 285.73 72.2295C286.939 73.3245 288.591 73.8721 290.687 73.8721C292.933 73.8721 295.001 73.334 296.889 72.2578V81.1787ZM322.122 81.6035C321.575 81.8678 320.678 82.1133 319.432 82.3398C318.186 82.5853 316.685 82.708 314.929 82.708C311.568 82.708 308.934 81.7829 307.027 79.9326C305.139 78.0824 304.195 75.4486 304.195 72.0312V61.3545H299.636V53H304.195V47.3076L316.09 44.0225V53H322.122V61.3545H316.09V70.0488C316.09 72.5977 317.1 73.8721 319.12 73.8721C320.064 73.8721 321.065 73.6644 322.122 73.249V81.6035ZM358.146 66.9902C358.146 71.8802 356.663 75.7223 353.699 78.5166C350.754 81.3109 346.629 82.708 341.323 82.708C336.056 82.708 331.949 81.3486 329.004 78.6299C326.077 75.8923 324.614 72.1257 324.614 67.3301C324.614 64.2526 325.303 61.5811 326.682 59.3154C328.06 57.0498 330.023 55.3128 332.572 54.1045C335.121 52.8962 338.057 52.292 341.38 52.292C344.816 52.292 347.79 52.9245 350.301 54.1895C352.831 55.4544 354.766 57.2103 356.106 59.457C357.466 61.7038 358.146 64.2148 358.146 66.9902ZM345.911 67.0469C345.911 63.1009 344.401 61.1279 341.38 61.1279C338.359 61.1279 336.849 63.1953 336.849 67.3301C336.849 71.6914 338.378 73.8721 341.437 73.8721C344.42 73.8721 345.911 71.597 345.911 67.0469ZM384.455 63.3369C384.002 63.1292 383.388 62.9404 382.614 62.7705C381.84 62.6006 381.198 62.5156 380.688 62.5156C376.705 62.5156 374.713 64.819 374.713 69.4258V82H362.648V53H374.713V58.0977H374.826C375.562 56.2663 376.61 54.8786 377.97 53.9346C379.329 52.9717 380.915 52.4902 382.728 52.4902C383.388 52.4902 383.964 52.6035 384.455 52.8301V63.3369Z" fill="url(#paint2_linear_29_1296)"/>
<path d="M129.355 30H124.619L120.098 15.9961H124.639L126.777 24.6191C126.947 25.3158 127.041 25.8366 127.061 26.1816H127.158C127.197 25.7454 127.298 25.2051 127.461 24.5605L129.541 15.9961H133.936L129.355 30ZM141.406 30V28.457H141.367C141.022 28.9323 140.71 29.2806 140.43 29.502C140.156 29.7233 139.844 29.9023 139.492 30.0391C139.147 30.1758 138.743 30.2441 138.281 30.2441C137.188 30.2441 136.354 29.8893 135.781 29.1797C135.208 28.4701 134.922 27.4219 134.922 26.0352V20H139.082V25.7227C139.082 26.7057 139.45 27.1973 140.186 27.1973C140.589 27.1973 140.892 27.0638 141.094 26.7969C141.302 26.5299 141.406 26.1523 141.406 25.6641V20H145.566V30H141.406ZM151.143 26.1816C151.214 26.6113 151.462 26.9499 151.885 27.1973C152.308 27.4382 152.868 27.5586 153.564 27.5586C154.535 27.5586 155.452 27.373 156.318 27.002V29.6387C155.309 30.0423 154.085 30.2441 152.646 30.2441C150.902 30.2441 149.544 29.7982 148.574 28.9062C147.604 28.0143 147.119 26.7871 147.119 25.2246C147.119 24.1504 147.331 23.2031 147.754 22.3828C148.184 21.5625 148.815 20.9212 149.648 20.459C150.488 19.9902 151.413 19.7559 152.422 19.7559C153.457 19.7559 154.342 19.9577 155.078 20.3613C155.814 20.765 156.37 21.3314 156.748 22.0605C157.132 22.7897 157.324 23.6426 157.324 24.6191V26.1816H151.143ZM153.643 24.0039C153.643 22.8516 153.229 22.2754 152.402 22.2754C152.057 22.2754 151.768 22.4349 151.533 22.7539C151.299 23.0664 151.162 23.4831 151.123 24.0039H153.643ZM166.23 19.2969V30H161.992V19.2969H158.076V15.9961H170.195V19.2969H166.23ZM177.871 30V28.457H177.832C177.487 28.9323 177.174 29.2806 176.895 29.502C176.621 29.7233 176.309 29.9023 175.957 30.0391C175.612 30.1758 175.208 30.2441 174.746 30.2441C173.652 30.2441 172.819 29.8893 172.246 29.1797C171.673 28.4701 171.387 27.4219 171.387 26.0352V20H175.547V25.7227C175.547 26.7057 175.915 27.1973 176.65 27.1973C177.054 27.1973 177.357 27.0638 177.559 26.7969C177.767 26.5299 177.871 26.1523 177.871 25.6641V20H182.031V30H177.871ZM195.303 24.6973C195.303 25.791 195.12 26.7611 194.756 27.6074C194.398 28.4473 193.887 29.0983 193.223 29.5605C192.559 30.0163 191.807 30.2441 190.967 30.2441C190.322 30.2441 189.769 30.127 189.307 29.8926C188.851 29.6517 188.49 29.3424 188.223 28.9648H188.184V30H184.023V15.1953H188.184V21.3574H188.223C188.548 20.8626 188.988 20.472 189.541 20.1855C190.101 19.8991 190.716 19.7559 191.387 19.7559C192.65 19.7559 193.617 20.1758 194.287 21.0156C194.964 21.8555 195.303 23.0827 195.303 24.6973ZM191.084 24.8242C191.084 24.1536 190.954 23.6491 190.693 23.3105C190.439 22.972 190.072 22.8027 189.59 22.8027C189.167 22.8027 188.812 22.9818 188.525 23.3398C188.245 23.6914 188.105 24.1504 188.105 24.7168V25.3223C188.105 25.8952 188.232 26.3509 188.486 26.6895C188.74 27.028 189.082 27.1973 189.512 27.1973C190.013 27.1973 190.4 26.9922 190.674 26.582C190.947 26.1654 191.084 25.5794 191.084 24.8242ZM200.459 26.1816C200.531 26.6113 200.778 26.9499 201.201 27.1973C201.624 27.4382 202.184 27.5586 202.881 27.5586C203.851 27.5586 204.769 27.373 205.635 27.002V29.6387C204.626 30.0423 203.402 30.2441 201.963 30.2441C200.218 30.2441 198.861 29.7982 197.891 28.9062C196.921 28.0143 196.436 26.7871 196.436 25.2246C196.436 24.1504 196.647 23.2031 197.07 22.3828C197.5 21.5625 198.132 20.9212 198.965 20.459C199.805 19.9902 200.729 19.7559 201.738 19.7559C202.773 19.7559 203.659 19.9577 204.395 20.3613C205.13 20.765 205.687 21.3314 206.064 22.0605C206.449 22.7897 206.641 23.6426 206.641 24.6191V26.1816H200.459ZM202.959 24.0039C202.959 22.8516 202.546 22.2754 201.719 22.2754C201.374 22.2754 201.084 22.4349 200.85 22.7539C200.615 23.0664 200.479 23.4831 200.439 24.0039H202.959Z" fill="url(#paint3_linear_29_1296)"/>
<defs>
<linearGradient id="paint0_linear_29_1296" x1="0" y1="0" x2="100" y2="100" gradientUnits="userSpaceOnUse">
<stop stop-color="#1B3245"/>
<stop offset="1" stop-color="#0C2028"/>
</linearGradient>
<linearGradient id="paint1_linear_29_1296" x1="33.2031" y1="25" x2="84.1797" y2="75.9766" gradientUnits="userSpaceOnUse">
<stop stop-color="#00E1C3"/>
<stop offset="1" stop-color="#00D1D5"/>
</linearGradient>
<linearGradient id="paint2_linear_29_1296" x1="120" y1="32" x2="253.513" y2="195.312" gradientUnits="userSpaceOnUse">
<stop stop-color="#42D392"/>
<stop offset="1" stop-color="#647EFF"/>
</linearGradient>
<linearGradient id="paint3_linear_29_1296" x1="120" y1="13" x2="166.479" y2="67.4456" gradientUnits="userSpaceOnUse">
<stop stop-color="#42D392"/>
<stop offset="1" stop-color="#647EFF"/>
</linearGradient>
<clipPath id="clip0_29_1296">
<rect width="100" height="100" fill="white"/>
</clipPath>
</defs>
</svg>
