<svg width="523" height="100" viewBox="0 0 523 100" fill="none" xmlns="http://www.w3.org/2000/svg">
<g clip-path="url(#clip0_29_1298)">
<path d="M80.4688 0H19.5312C8.74444 0 0 8.74444 0 19.5312V80.4688C0 91.2556 8.74444 100 19.5312 100H80.4688C91.2556 100 100 91.2556 100 80.4688V19.5312C100 8.74444 91.2556 0 80.4688 0Z" fill="url(#paint0_linear_29_1298)"/>
<path fill-rule="evenodd" clip-rule="evenodd" d="M64.0172 52.6154C66.1043 51.4133 66.1043 48.4012 64.0168 47.1992L64.0158 47.1988L56.9389 43.127L64.7264 39.4957L67.5223 41.1041L67.5266 41.1066L75.4672 45.6752C78.7309 47.5529 78.7309 52.2621 75.4672 54.1398L67.5279 58.7074L67.5223 58.7107L64.2145 60.6139L56.4268 56.9824L64.0158 52.6162L64.0172 52.6154ZM40.2344 56.7588V60.8951V60.8965C40.2354 63.2992 42.8348 64.8023 44.9178 63.6039L49.3926 61.0295L57.1803 64.6607L48.4242 69.6984L48.4186 69.7018L40.5209 74.2455C37.2658 76.1182 33.2031 73.7686 33.2031 70.0131V60.8951V53.4801L40.2344 56.7588ZM57.6922 35.4486L49.9047 39.0801L44.9178 36.2109L44.9148 36.2094C42.832 35.0137 40.2344 36.5172 40.2344 38.9197V43.5893L33.2031 46.8682V38.9197V29.8018C33.2031 26.0463 37.2658 23.6967 40.5209 25.5693L48.4213 30.1146L48.4242 30.1164L57.6922 35.4486Z" fill="url(#paint1_linear_29_1298)"/>
</g>
<path d="M162.804 36.02L158.222 37.934C159.788 40.196 161.528 43.618 162.746 45.996L167.386 43.966C166.284 41.82 164.254 38.166 162.804 36.02ZM169.648 33.41L165.066 35.324C166.632 37.528 168.546 40.892 169.706 43.328L174.346 41.298C173.302 39.268 171.156 35.614 169.648 33.41ZM137.748 38.572H129.222C129.454 40.312 129.628 43.27 129.628 44.604C129.628 48.2 129.628 69.486 129.628 76.156C129.628 81.202 132.586 83.928 137.574 84.856C140.068 85.262 143.606 85.494 147.376 85.494C153.756 85.494 162.514 85.146 168.024 84.334V75.866C163.21 77.142 153.872 77.838 147.782 77.838C145.23 77.838 142.852 77.78 141.112 77.49C138.502 77.026 137.342 76.388 137.342 73.836C137.342 69.486 137.342 48.142 137.342 44.604C137.342 42.922 137.516 40.312 137.748 38.572ZM133.92 56.378L133.978 63.976C141.866 62.12 153.234 58.698 160.078 56.088C161.992 55.334 164.602 54.232 166.806 53.304L163.732 45.996C161.412 47.33 159.44 48.258 157.41 49.128C151.32 51.622 141.402 54.754 133.92 56.378ZM221.964 55.392L216.396 52.666C215.642 53.072 213.264 53.304 212.104 53.304C209.32 53.304 200.156 53.304 197.198 53.304C195.69 53.304 193.022 53.13 191.456 52.898V60.554C193.138 60.438 195.458 60.322 197.256 60.322C198.938 60.322 210.19 60.322 212.974 60.322C212.684 64.208 210.944 75.402 210.19 79.23H218.194C218.89 75.054 220.862 61.888 221.442 57.828C221.5 57.19 221.732 56.146 221.964 55.392ZM186.178 76.388V83.986C188.324 83.87 189.832 83.812 191.862 83.812C194.82 83.812 219.412 83.812 222.428 83.812C223.936 83.812 226.778 83.87 227.996 83.928V76.446C226.488 76.62 223.762 76.736 222.312 76.736C219.47 76.736 195.342 76.736 191.862 76.736C189.89 76.736 187.686 76.562 186.178 76.388ZM241.278 56.146V65.31C243.482 65.136 247.368 64.962 250.616 64.962C257.46 64.962 276.542 64.962 281.82 64.962C284.256 64.962 287.214 65.252 288.606 65.31V56.146C287.04 56.262 284.488 56.552 281.762 56.552C276.6 56.552 257.46 56.552 250.616 56.552C247.6 56.552 243.424 56.32 241.278 56.146ZM302.816 41.356L304.672 48.084C309.718 47.968 318.244 47.736 324.856 46.808C329.322 46.17 333.962 45.416 337.558 44.488C338.486 44.256 340.052 43.85 342.024 43.328L337.21 36.948C334.31 38.34 328.452 39.616 322.594 40.486C316.214 41.414 307.282 41.472 302.816 41.356ZM305.31 81.376L312.734 86.364C323.928 79.636 327.756 69.718 327.756 58.002C327.756 58.002 327.756 50.288 327.756 45.3L320.158 46.17C320.158 54.406 320.158 58.176 320.158 58.176C320.158 69.022 315.576 76.678 305.31 81.376ZM298.466 55.276V62.758C299.974 62.642 302.12 62.526 303.918 62.526C307.34 62.526 338.892 62.526 342.546 62.526C344.17 62.526 346.084 62.642 347.65 62.758V55.276C346.374 55.392 343.648 55.566 342.43 55.566C338.544 55.566 307.514 55.566 303.86 55.566C302.004 55.566 300.09 55.392 298.466 55.276ZM395.964 55.392L390.396 52.666C389.642 53.072 387.264 53.304 386.104 53.304C383.32 53.304 374.156 53.304 371.198 53.304C369.69 53.304 367.022 53.13 365.456 52.898V60.554C367.138 60.438 369.458 60.322 371.256 60.322C372.938 60.322 384.19 60.322 386.974 60.322C386.684 64.208 384.944 75.402 384.19 79.23H392.194C392.89 75.054 394.862 61.888 395.442 57.828C395.5 57.19 395.732 56.146 395.964 55.392ZM360.178 76.388V83.986C362.324 83.87 363.832 83.812 365.862 83.812C368.82 83.812 393.412 83.812 396.428 83.812C397.936 83.812 400.778 83.87 401.996 83.928V76.446C400.488 76.62 397.762 76.736 396.312 76.736C393.47 76.736 369.342 76.736 365.862 76.736C363.89 76.736 361.686 76.562 360.178 76.388ZM415.278 56.146V65.31C417.482 65.136 421.368 64.962 424.616 64.962C431.46 64.962 450.542 64.962 455.82 64.962C458.256 64.962 461.214 65.252 462.606 65.31V56.146C461.04 56.262 458.488 56.552 455.762 56.552C450.6 56.552 431.46 56.552 424.616 56.552C421.6 56.552 417.424 56.32 415.278 56.146ZM508.567 34.164L503.753 36.136C505.261 38.456 507.001 41.414 508.161 43.85L512.975 41.82C511.931 39.674 510.017 36.368 508.567 34.164ZM516.629 32.656L511.815 34.628C513.439 36.774 515.237 40.022 516.455 42.4L521.269 40.37C520.167 38.282 518.137 34.802 516.629 32.656ZM514.541 45.068L508.799 41.414C507.291 41.82 505.435 41.878 504.275 41.878C501.027 41.878 481.771 41.878 477.421 41.878C475.507 41.878 472.259 41.588 470.519 41.356V49.592C472.027 49.476 474.811 49.302 477.421 49.302C481.771 49.302 500.969 49.302 504.449 49.302C503.695 54.29 501.491 60.902 497.605 65.716C492.965 71.574 486.411 76.62 474.927 79.288L481.249 86.248C491.573 82.942 499.287 77.2 504.565 70.24C509.379 63.802 511.931 54.754 513.265 49.07C513.555 47.852 514.019 46.17 514.541 45.068Z" fill="url(#paint2_linear_29_1298)"/>
<path d="M129.355 29H124.619L120.098 14.9961H124.639L126.777 23.6191C126.947 24.3158 127.041 24.8366 127.061 25.1816H127.158C127.197 24.7454 127.298 24.2051 127.461 23.5605L129.541 14.9961H133.936L129.355 29ZM141.406 29V27.457H141.367C141.022 27.9323 140.71 28.2806 140.43 28.502C140.156 28.7233 139.844 28.9023 139.492 29.0391C139.147 29.1758 138.743 29.2441 138.281 29.2441C137.188 29.2441 136.354 28.8893 135.781 28.1797C135.208 27.4701 134.922 26.4219 134.922 25.0352V19H139.082V24.7227C139.082 25.7057 139.45 26.1973 140.186 26.1973C140.589 26.1973 140.892 26.0638 141.094 25.7969C141.302 25.5299 141.406 25.1523 141.406 24.6641V19H145.566V29H141.406ZM151.143 25.1816C151.214 25.6113 151.462 25.9499 151.885 26.1973C152.308 26.4382 152.868 26.5586 153.564 26.5586C154.535 26.5586 155.452 26.373 156.318 26.002V28.6387C155.309 29.0423 154.085 29.2441 152.646 29.2441C150.902 29.2441 149.544 28.7982 148.574 27.9062C147.604 27.0143 147.119 25.7871 147.119 24.2246C147.119 23.1504 147.331 22.2031 147.754 21.3828C148.184 20.5625 148.815 19.9212 149.648 19.459C150.488 18.9902 151.413 18.7559 152.422 18.7559C153.457 18.7559 154.342 18.9577 155.078 19.3613C155.814 19.765 156.37 20.3314 156.748 21.0605C157.132 21.7897 157.324 22.6426 157.324 23.6191V25.1816H151.143ZM153.643 23.0039C153.643 21.8516 153.229 21.2754 152.402 21.2754C152.057 21.2754 151.768 21.4349 151.533 21.7539C151.299 22.0664 151.162 22.4831 151.123 23.0039H153.643ZM166.23 18.2969V29H161.992V18.2969H158.076V14.9961H170.195V18.2969H166.23ZM177.871 29V27.457H177.832C177.487 27.9323 177.174 28.2806 176.895 28.502C176.621 28.7233 176.309 28.9023 175.957 29.0391C175.612 29.1758 175.208 29.2441 174.746 29.2441C173.652 29.2441 172.819 28.8893 172.246 28.1797C171.673 27.4701 171.387 26.4219 171.387 25.0352V19H175.547V24.7227C175.547 25.7057 175.915 26.1973 176.65 26.1973C177.054 26.1973 177.357 26.0638 177.559 25.7969C177.767 25.5299 177.871 25.1523 177.871 24.6641V19H182.031V29H177.871ZM195.303 23.6973C195.303 24.791 195.12 25.7611 194.756 26.6074C194.398 27.4473 193.887 28.0983 193.223 28.5605C192.559 29.0163 191.807 29.2441 190.967 29.2441C190.322 29.2441 189.769 29.127 189.307 28.8926C188.851 28.6517 188.49 28.3424 188.223 27.9648H188.184V29H184.023V14.1953H188.184V20.3574H188.223C188.548 19.8626 188.988 19.472 189.541 19.1855C190.101 18.8991 190.716 18.7559 191.387 18.7559C192.65 18.7559 193.617 19.1758 194.287 20.0156C194.964 20.8555 195.303 22.0827 195.303 23.6973ZM191.084 23.8242C191.084 23.1536 190.954 22.6491 190.693 22.3105C190.439 21.972 190.072 21.8027 189.59 21.8027C189.167 21.8027 188.812 21.9818 188.525 22.3398C188.245 22.6914 188.105 23.1504 188.105 23.7168V24.3223C188.105 24.8952 188.232 25.3509 188.486 25.6895C188.74 26.028 189.082 26.1973 189.512 26.1973C190.013 26.1973 190.4 25.9922 190.674 25.582C190.947 25.1654 191.084 24.5794 191.084 23.8242ZM200.459 25.1816C200.531 25.6113 200.778 25.9499 201.201 26.1973C201.624 26.4382 202.184 26.5586 202.881 26.5586C203.851 26.5586 204.769 26.373 205.635 26.002V28.6387C204.626 29.0423 203.402 29.2441 201.963 29.2441C200.218 29.2441 198.861 28.7982 197.891 27.9062C196.921 27.0143 196.436 25.7871 196.436 24.2246C196.436 23.1504 196.647 22.2031 197.07 21.3828C197.5 20.5625 198.132 19.9212 198.965 19.459C199.805 18.9902 200.729 18.7559 201.738 18.7559C202.773 18.7559 203.659 18.9577 204.395 19.3613C205.13 19.765 205.687 20.3314 206.064 21.0605C206.449 21.7897 206.641 22.6426 206.641 23.6191V25.1816H200.459ZM202.959 23.0039C202.959 21.8516 202.546 21.2754 201.719 21.2754C201.374 21.2754 201.084 21.4349 200.85 21.7539C200.615 22.0664 200.479 22.4831 200.439 23.0039H202.959Z" fill="url(#paint3_linear_29_1298)"/>
<defs>
<linearGradient id="paint0_linear_29_1298" x1="0" y1="0" x2="100" y2="100" gradientUnits="userSpaceOnUse">
<stop stop-color="#1B3245"/>
<stop offset="1" stop-color="#0C2028"/>
</linearGradient>
<linearGradient id="paint1_linear_29_1298" x1="33.2031" y1="25" x2="84.1797" y2="75.9766" gradientUnits="userSpaceOnUse">
<stop stop-color="#00E1C3"/>
<stop offset="1" stop-color="#00D1D5"/>
</linearGradient>
<linearGradient id="paint2_linear_29_1298" x1="120" y1="31" x2="243.508" y2="248.044" gradientUnits="userSpaceOnUse">
<stop stop-color="#42D392"/>
<stop offset="1" stop-color="#647EFF"/>
</linearGradient>
<linearGradient id="paint3_linear_29_1298" x1="120" y1="12" x2="166.479" y2="66.4456" gradientUnits="userSpaceOnUse">
<stop stop-color="#42D392"/>
<stop offset="1" stop-color="#647EFF"/>
</linearGradient>
<clipPath id="clip0_29_1298">
<rect width="100" height="100" fill="white"/>
</clipPath>
</defs>
</svg>
