<svg width="260" height="50" viewBox="0 0 260 50" fill="none" xmlns="http://www.w3.org/2000/svg">
<path d="M31.8477 45.9336H18.1123L5 5.32227H18.1689L24.3711 30.3291C24.862 32.3493 25.1357 33.8597 25.1924 34.8604H25.4756C25.5889 33.5954 25.8815 32.0283 26.3535 30.1592L32.3857 5.32227H45.1299L31.8477 45.9336Z" fill="#1A1A1A"/>
<path d="M66.7949 45.9336V41.459H66.6816C65.681 42.8372 64.7747 43.8473 63.9629 44.4893C63.1699 45.1312 62.2637 45.6504 61.2441 46.0469C60.2435 46.4434 59.0729 46.6416 57.7324 46.6416C54.5605 46.6416 52.1439 45.6126 50.4824 43.5547C48.821 41.4967 47.9902 38.457 47.9902 34.4355V16.9336H60.0547V33.5293C60.0547 36.3802 61.1214 37.8057 63.2549 37.8057C64.4255 37.8057 65.3034 37.4186 65.8887 36.6445C66.4928 35.8704 66.7949 34.7754 66.7949 33.3594V16.9336H78.8594V45.9336H66.7949Z" fill="#1A1A1A"/>
<path d="M95.0303 34.8604C95.238 36.1064 95.9554 37.0882 97.1826 37.8057C98.4098 38.5042 100.034 38.8535 102.054 38.8535C104.867 38.8535 107.529 38.3154 110.04 37.2393V44.8857C107.114 46.0563 103.564 46.6416 99.3916 46.6416C94.3317 46.6416 90.3952 45.3483 87.582 42.7617C84.7689 40.1751 83.3623 36.6162 83.3623 32.085C83.3623 28.9697 83.9759 26.2227 85.2031 23.8438C86.4492 21.4648 88.2806 19.6051 90.6973 18.2646C93.1328 16.9053 95.8138 16.2256 98.7402 16.2256C101.742 16.2256 104.31 16.8109 106.443 17.9814C108.577 19.152 110.191 20.7946 111.286 22.9092C112.4 25.0238 112.957 27.4971 112.957 30.3291V34.8604H95.0303ZM102.28 28.5449C102.28 25.2031 101.081 23.5322 98.6836 23.5322C97.6829 23.5322 96.8428 23.9948 96.1631 24.9199C95.4834 25.8262 95.0869 27.0345 94.9736 28.5449H102.28Z" fill="#1A1A1A"/>
<path d="M138.785 14.8945V45.9336H126.494V14.8945H115.138V5.32227H150.283V14.8945H138.785Z" fill="#1A1A1A"/>
<path d="M172.543 45.9336V41.459H172.43C171.429 42.8372 170.523 43.8473 169.711 44.4893C168.918 45.1312 168.012 45.6504 166.992 46.0469C165.992 46.4434 164.821 46.6416 163.48 46.6416C160.309 46.6416 157.892 45.6126 156.23 43.5547C154.569 41.4967 153.738 38.457 153.738 34.4355V16.9336H165.803V33.5293C165.803 36.3802 166.869 37.8057 169.003 37.8057C170.174 37.8057 171.051 37.4186 171.637 36.6445C172.241 35.8704 172.543 34.7754 172.543 33.3594V16.9336H184.607V45.9336H172.543Z" fill="#1A1A1A"/>
<path d="M223.095 30.5557C223.095 33.7275 222.566 36.5407 221.509 38.9951C220.47 41.4307 218.988 43.3187 217.062 44.6592C215.137 45.9808 212.956 46.6416 210.521 46.6416C208.651 46.6416 207.047 46.3018 205.706 45.6221C204.384 44.9235 203.337 44.0267 202.562 42.9316H202.449V45.9336H190.385V3H202.449V20.8701H202.562C203.507 19.4352 204.781 18.3024 206.386 17.4717C208.009 16.641 209.794 16.2256 211.738 16.2256C215.401 16.2256 218.205 17.4434 220.149 19.8789C222.113 22.3145 223.095 25.8734 223.095 30.5557ZM210.86 30.9238C210.86 28.9792 210.483 27.516 209.728 26.5342C208.991 25.5524 207.924 25.0615 206.527 25.0615C205.3 25.0615 204.271 25.5807 203.44 26.6191C202.629 27.6387 202.223 28.9697 202.223 30.6123V32.3682C202.223 34.0296 202.591 35.3512 203.327 36.333C204.063 37.3148 205.055 37.8057 206.301 37.8057C207.755 37.8057 208.878 37.2109 209.671 36.0215C210.464 34.8132 210.86 33.1139 210.86 30.9238Z" fill="#1A1A1A"/>
<path d="M238.048 34.8604C238.256 36.1064 238.973 37.0882 240.2 37.8057C241.427 38.5042 243.051 38.8535 245.071 38.8535C247.884 38.8535 250.547 38.3154 253.058 37.2393V44.8857C250.131 46.0563 246.582 46.6416 242.409 46.6416C237.349 46.6416 233.413 45.3483 230.6 42.7617C227.786 40.1751 226.38 36.6162 226.38 32.085C226.38 28.9697 226.993 26.2227 228.221 23.8438C229.467 21.4648 231.298 19.6051 233.715 18.2646C236.15 16.9053 238.831 16.2256 241.758 16.2256C244.76 16.2256 247.327 16.8109 249.461 17.9814C251.594 19.152 253.209 20.7946 254.304 22.9092C255.418 25.0238 255.975 27.4971 255.975 30.3291V34.8604H238.048ZM245.298 28.5449C245.298 25.2031 244.099 23.5322 241.701 23.5322C240.701 23.5322 239.86 23.9948 239.181 24.9199C238.501 25.8262 238.104 27.0345 237.991 28.5449H245.298Z" fill="#1A1A1A"/>
</svg>
