<svg width="100" height="100" viewBox="0 0 100 100" fill="none" xmlns="http://www.w3.org/2000/svg">
<g clip-path="url(#clip0_5_193)">
<path d="M80.4688 0H19.5312C8.74444 0 0 8.74444 0 19.5312V80.4688C0 91.2556 8.74444 100 19.5312 100H80.4688C91.2556 100 100 91.2556 100 80.4688V19.5312C100 8.74444 91.2556 0 80.4688 0Z" fill="white"/>
<path fill-rule="evenodd" clip-rule="evenodd" d="M64.0172 52.6154C66.1043 51.4133 66.1043 48.4012 64.0168 47.1992L64.0158 47.1988L56.9389 43.127L64.7264 39.4957L67.5223 41.1041L67.5266 41.1066L75.4672 45.6752C78.7309 47.5529 78.7309 52.2621 75.4672 54.1398L67.5279 58.7074L67.5223 58.7107L64.2145 60.6139L56.4268 56.9824L64.0158 52.6162L64.0172 52.6154ZM40.2344 56.7588V60.8951V60.8965C40.2354 63.2992 42.8348 64.8023 44.9178 63.6039L49.3926 61.0295L57.1803 64.6607L48.4242 69.6984L48.4186 69.7018L40.5209 74.2455C37.2658 76.1182 33.2031 73.7686 33.2031 70.0131V60.8951V53.4801L40.2344 56.7588ZM57.6922 35.4486L49.9047 39.0801L44.9178 36.2109L44.9148 36.2094C42.832 35.0137 40.2344 36.5172 40.2344 38.9197V43.5893L33.2031 46.8682V38.9197V29.8018C33.2031 26.0463 37.2658 23.6967 40.5209 25.5693L48.4213 30.1146L48.4242 30.1164L57.6922 35.4486Z" fill="#1A1A1A"/>
</g>
<defs>
<clipPath id="clip0_5_193">
<rect width="100" height="100" fill="white"/>
</clipPath>
</defs>
</svg>
