<svg width="100" height="100" viewBox="0 0 100 100" fill="none" xmlns="http://www.w3.org/2000/svg">
<g clip-path="url(#clip0_5_188)">
<path fill-rule="evenodd" clip-rule="evenodd" d="M66.6281 55.2309C70.8024 52.8266 70.8023 46.8023 66.6273 44.3984L66.6254 44.3977L52.4715 36.2539L68.0465 28.9914L73.6383 32.2082L73.6469 32.2133L89.5281 41.3504C96.0555 45.1059 96.0555 54.5242 89.5281 58.2797L73.6496 67.4148L73.6383 67.4215L67.0227 71.2277L51.4473 63.9649L66.6254 55.2324L66.6281 55.2309ZM19.0625 63.5176V71.7902V71.793C19.0645 76.5984 24.2633 79.6047 28.4293 77.2078L37.3789 72.059L52.9543 79.3215L35.4422 89.3969L35.4309 89.4035L19.6355 98.491C13.1254 102.236 5 97.5371 5 90.0262V71.7902V56.9602L19.0625 63.5176ZM53.9781 20.8973L38.4031 28.1602L28.4293 22.4219L28.4234 22.4188C24.2578 20.0273 19.0625 23.0344 19.0625 27.8395V37.1785L5 43.7363V27.8395V9.60352C5 2.09258 13.1254 -2.60664 19.6355 1.13867L35.4363 10.2293L35.4422 10.2328L53.9781 20.8973Z" fill="#1A1A1A"/>
</g>
<defs>
<clipPath id="clip0_5_188">
<rect width="100" height="100" fill="white"/>
</clipPath>
</defs>
</svg>
