<svg width="373" height="100" viewBox="0 0 373 100" fill="none" xmlns="http://www.w3.org/2000/svg">
<g clip-path="url(#clip0_5_149)">
<path fill-rule="evenodd" clip-rule="evenodd" d="M66.6281 55.2309C70.8024 52.8266 70.8023 46.8023 66.6273 44.3984L66.6254 44.3977L52.4715 36.2539L68.0465 28.9914L73.6383 32.2082L73.6469 32.2133L89.5281 41.3504C96.0555 45.1059 96.0555 54.5242 89.5281 58.2797L73.6496 67.4149L73.6383 67.4215L67.0227 71.2277L51.4473 63.9649L66.6254 55.2324L66.6281 55.2309ZM19.0625 63.5176V71.7902V71.793C19.0645 76.5984 24.2633 79.6047 28.4293 77.2078L37.3789 72.059L52.9543 79.3215L35.4422 89.3969L35.4309 89.4035L19.6355 98.491C13.1254 102.236 5 97.5371 5 90.0262V71.7902V56.9602L19.0625 63.5176ZM53.9781 20.8973L38.4031 28.1602L28.4293 22.4219L28.4234 22.4188C24.2578 20.0273 19.0625 23.0344 19.0625 27.8395V37.1785L5 43.7363V27.8395V9.60352C5 2.09258 13.1254 -2.60664 19.6355 1.13867L35.4363 10.2293L35.4422 10.2328L53.9781 20.8973Z" fill="#1A1A1A"/>
</g>
<path d="M147.131 73H133.396L120.283 32.3887H133.452L139.654 57.3955C140.145 59.4157 140.419 60.9261 140.476 61.9268H140.759C140.872 60.6618 141.165 59.0947 141.637 57.2256L147.669 32.3887H160.413L147.131 73ZM182.078 73V68.5254H181.965C180.964 69.9036 180.058 70.9137 179.246 71.5557C178.453 72.1976 177.547 72.7168 176.527 73.1133C175.527 73.5098 174.356 73.708 173.016 73.708C169.844 73.708 167.427 72.679 165.766 70.6211C164.104 68.5632 163.273 65.5234 163.273 61.502V44H175.338V60.5957C175.338 63.4466 176.405 64.8721 178.538 64.8721C179.709 64.8721 180.587 64.485 181.172 63.7109C181.776 62.9368 182.078 61.8418 182.078 60.4258V44H194.143V73H182.078ZM210.313 61.9268C210.521 63.1729 211.239 64.1546 212.466 64.8721C213.693 65.5706 215.317 65.9199 217.337 65.9199C220.15 65.9199 222.812 65.3818 225.323 64.3057V71.9521C222.397 73.1227 218.847 73.708 214.675 73.708C209.615 73.708 205.678 72.4147 202.865 69.8281C200.052 67.2415 198.646 63.6826 198.646 59.1514C198.646 56.0361 199.259 53.2891 200.486 50.9102C201.732 48.5312 203.564 46.6715 205.98 45.3311C208.416 43.9717 211.097 43.292 214.023 43.292C217.025 43.292 219.593 43.8773 221.727 45.0479C223.86 46.2184 225.474 47.861 226.569 49.9756C227.683 52.0902 228.24 54.5635 228.24 57.3955V61.9268H210.313ZM217.563 55.6113C217.563 52.2695 216.365 50.5986 213.967 50.5986C212.966 50.5986 212.126 51.0612 211.446 51.9863C210.767 52.8926 210.37 54.1009 210.257 55.6113H217.563ZM254.068 41.9609V73H241.777V41.9609H230.421V32.3887H265.566V41.9609H254.068ZM287.826 73V68.5254H287.713C286.712 69.9036 285.806 70.9137 284.994 71.5557C284.201 72.1976 283.295 72.7168 282.275 73.1133C281.275 73.5098 280.104 73.708 278.764 73.708C275.592 73.708 273.175 72.679 271.514 70.6211C269.852 68.5632 269.021 65.5234 269.021 61.502V44H281.086V60.5957C281.086 63.4466 282.153 64.8721 284.286 64.8721C285.457 64.8721 286.335 64.485 286.92 63.7109C287.524 62.9368 287.826 61.8418 287.826 60.4258V44H299.891V73H287.826ZM338.378 57.6221C338.378 60.7939 337.849 63.6071 336.792 66.0615C335.754 68.4971 334.271 70.3851 332.346 71.7256C330.42 73.0472 328.239 73.708 325.804 73.708C323.935 73.708 322.33 73.3682 320.989 72.6885C319.668 71.9899 318.62 71.0931 317.846 69.998H317.732V73H305.668V30.0664H317.732V47.9365H317.846C318.79 46.5016 320.064 45.3688 321.669 44.5381C323.293 43.7074 325.077 43.292 327.021 43.292C330.684 43.292 333.488 44.5098 335.433 46.9453C337.396 49.3809 338.378 52.9398 338.378 57.6221ZM326.144 57.9902C326.144 56.0456 325.766 54.5824 325.011 53.6006C324.274 52.6188 323.208 52.1279 321.811 52.1279C320.583 52.1279 319.554 52.6471 318.724 53.6855C317.912 54.7051 317.506 56.0361 317.506 57.6787V59.4346C317.506 61.096 317.874 62.4176 318.61 63.3994C319.347 64.3812 320.338 64.8721 321.584 64.8721C323.038 64.8721 324.161 64.2773 324.954 63.0879C325.747 61.8796 326.144 60.1803 326.144 57.9902ZM353.331 61.9268C353.539 63.1729 354.256 64.1546 355.483 64.8721C356.711 65.5706 358.334 65.9199 360.354 65.9199C363.168 65.9199 365.83 65.3818 368.341 64.3057V71.9521C365.414 73.1227 361.865 73.708 357.692 73.708C352.632 73.708 348.696 72.4147 345.883 69.8281C343.07 67.2415 341.663 63.6826 341.663 59.1514C341.663 56.0361 342.277 53.2891 343.504 50.9102C344.75 48.5312 346.581 46.6715 348.998 45.3311C351.434 43.9717 354.115 43.292 357.041 43.292C360.043 43.292 362.611 43.8773 364.744 45.0479C366.878 46.2184 368.492 47.861 369.587 49.9756C370.701 52.0902 371.258 54.5635 371.258 57.3955V61.9268H353.331ZM360.581 55.6113C360.581 52.2695 359.382 50.5986 356.984 50.5986C355.984 50.5986 355.144 51.0612 354.464 51.9863C353.784 52.8926 353.388 54.1009 353.274 55.6113H360.581Z" fill="#1A1A1A"/>
<defs>
<clipPath id="clip0_5_149">
<rect width="100" height="100" fill="white"/>
</clipPath>
</defs>
</svg>
